HIERARCHY
ROOT Hips
{
    OFFSET 0.000000 0.000000 0.000000
    CHANNELS 6 Xposition Yposition Zposition Zrotation Xrotation Yrotation
    JOINT Spine
    {
        OFFSET -0.000000 8.834163 0.000000
        CHANNELS 3 Zrotation Xrotation Yrotation
        JOINT Spine1
        {
            OFFSET -0.000000 17.855492 0.000000
            CHANNELS 3 Zrotation Xrotation Yrotation
            JOINT Neck
            {
                OFFSET -0.000000 17.782162 1.616560
                CHANNELS 3 Zrotation Xrotation Yrotation
                JOINT Head
                {
                    OFFSET -0.000000 15.082717 -2.154674
                    CHANNELS 3 Zrotation Xrotation Yrotation
                    End Site
                    {
                        OFFSET -0.000000 26.933422 0.000000
                    }
                }
            }
            JOINT LeftShoulder
            {
                OFFSET 4.280775 15.989452 -0.632416
                CHANNELS 3 Zrotation Xrotation Yrotation
                JOINT LeftArm
                {
                    OFFSET 11.735877 0.000000 0.000000
                    CHANNELS 3 Zrotation Xrotation Yrotation
                    JOINT LeftForeArm
                    {
                        OFFSET 33.149986 0.000000 0.000000
                        CHANNELS 3 Zrotation Xrotation Yrotation
                        JOINT LeftHand
                        {
                            OFFSET 28.572401 0.000000 0.000000
                            CHANNELS 3 Zrotation Xrotation Yrotation
                            End Site
                            {
                                OFFSET 16.160055 0.000000 0.000000
                            }
                        }
                    }
                }
            }
            JOINT RightShoulder
            {
                OFFSET -4.290631 15.989452 -0.632416
                CHANNELS 3 Zrotation Xrotation Yrotation
                JOINT RightArm
                {
                    OFFSET -11.735877 0.000000 0.000000
                    CHANNELS 3 Zrotation Xrotation Yrotation
                    JOINT RightForeArm
                    {
                        OFFSET -33.149986 0.000000 0.000000
                        CHANNELS 3 Zrotation Xrotation Yrotation
                        JOINT RightHand
                        {
                            OFFSET -28.572401 0.000000 0.000000
                            CHANNELS 3 Zrotation Xrotation Yrotation
                            End Site
                            {
                                OFFSET -16.160055 0.000000 0.000000
                            }
                        }
                    }
                }
            }
        }
    }
    JOINT LeftUpLeg
    {
        OFFSET 10.773369 0.000000 0.000000
        CHANNELS 3 Zrotation Xrotation Yrotation
        JOINT LeftLeg
        {
            OFFSET -0.000000 -54.062664 0.000000
            CHANNELS 3 Zrotation Xrotation Yrotation
            JOINT LeftFoot
            {
                OFFSET -0.000000 -48.941059 0.000000
                CHANNELS 3 Zrotation Xrotation Yrotation
                JOINT LeftToeBase
                {
                    OFFSET -0.000000 -7.002690 16.160055
                    CHANNELS 3 Zrotation Xrotation Yrotation
                    End Site
                    {
                        OFFSET -0.000000 0.000000 4.309348
                    }
                }
            }
        }
    }
    JOINT RightUpLeg
    {
        OFFSET -10.773369 0.000000 0.000000
        CHANNELS 3 Zrotation Xrotation Yrotation
        JOINT RightLeg
        {
            OFFSET -0.000000 -54.062664 0.000000
            CHANNELS 3 Zrotation Xrotation Yrotation
            JOINT RightFoot
            {
                OFFSET -0.000000 -48.941059 0.000000
                CHANNELS 3 Zrotation Xrotation Yrotation
                JOINT RightToeBase
                {
                    OFFSET -0.000000 -7.002690 16.160055
                    CHANNELS 3 Zrotation Xrotation Yrotation
                    End Site
                    {
                        OFFSET -0.000000 0.000000 4.309348
                    }
                }
            }
        }
    }
}
MOTION
Frames:    13
Frame Time:    0.008333
129.592651    100.762642    6.444767    26.489223    14.921705    -52.992268    -2.881454    -24.136541    0.057107    8.668803    24.883322    -1.242724    -17.694637    34.176018    -14.646129    37.442505    -43.891308    1.256628    1.676794    12.131973    19.653337    -51.283730    60.817280    19.987896    -15.214381    -18.600832    -71.070732    12.966858    -26.736103    18.640759    -13.461134    -1.629757    16.020664    28.701044    -8.664467    29.120253    -19.932209    -27.505507    92.067436    -13.058886    -6.651725    -7.413386    9.237124    -49.049030    6.075830    -18.476164    60.534481    0.106457    -8.099604    -33.657825    -0.839888    0.000000    0.000000    0.000000    -5.847409    -37.461056    -1.932738    14.208960    44.282082    -10.078406    -14.110860    -40.144051    -27.490768    0.000000    0.000000    0.000000    
128.228882    100.904594    6.650810    26.849741    14.922755    -53.464741    -3.203096    -24.311094    0.236830    8.277486    24.935204    -0.906377    -18.685455    34.347855    -14.842018    39.435314    -43.257656    1.709616    1.586998    12.907483    19.663885    -51.982944    61.928982    20.711639    -14.792236    -20.091623    -72.314064    14.395823    -27.766741    19.573343    -13.610962    -1.436974    15.899673    28.983299    -8.957753    28.220694    -20.015310    -27.565323    93.224304    -12.337956    -6.074243    -8.893520    8.655964    -49.650425    5.344455    -18.333969    58.405014    3.617107    -12.047576    -33.236835    -6.997809    0.000000    0.000000    0.000000    -5.903026    -37.284603    -2.323255    14.931065    46.149403    8.757751    -23.627945    -34.547001    -46.619282    0.000000    0.000000    0.000000    
126.901749    101.036385    6.843138    27.069040    14.995429    -53.815762    -3.465838    -24.506413    0.380524    7.798110    25.103416    -0.605342    -19.193682    34.516056    -15.064089    41.271763    -42.928253    2.236798    1.828670    13.621393    19.634916    -52.337299    62.558632    20.765257    -14.218943    -21.007233    -73.481613    15.784815    -28.128210    20.428755    -13.513000    -1.129756    15.442777    29.177509    -8.805907    27.516817    -19.726425    -27.486092    94.215324    -11.431110    -5.924086    -9.664338    7.844511    -50.051018    5.081543    -16.383133    56.428608    5.376769    -14.923197    -32.624321    -11.716836    0.000000    0.000000    0.000000    -5.838458    -37.327999    -2.835097    14.726564    45.232166    -10.541093    -9.890507    -39.445427    -22.476048    0.000000    0.000000    0.000000    
125.476135    101.133224    7.048676    27.212515    14.994607    -54.224052    -4.043963    -24.819073    0.513092    7.941433    25.632425    -0.406118    -19.688677    34.395153    -15.450987    42.691559    -42.592316    2.415043    1.832230    14.167592    19.458546    -52.627335    63.424286    20.446785    -13.482426    -22.116051    -74.768967    17.436449    -28.482281    21.464134    -13.838890    -1.071147    14.392421    29.656769    -7.576902    27.125223    -19.586428    -27.786240    94.613678    -10.418146    -6.323490    -9.989884    7.292538    -50.222397    3.786678    -14.817863    57.031487    -25.788050    3.808904    -35.363968    23.669025    0.000000    0.000000    0.000000    -5.869493    -37.479969    -2.996391    16.206036    48.025703    7.408737    -18.747612    -34.710423    -41.711975    0.000000    0.000000    0.000000    
124.202011    101.183411    7.255193    27.579733    15.060770    -54.760983    -4.439801    -25.455252    0.599039    7.630101    26.251066    -0.179410    -19.823193    34.421310    -15.711973    44.017982    -42.559986    2.829752    1.894920    14.621772    19.361580    -52.751831    64.151512    19.809158    -12.740968    -23.266182    -75.928070    18.620541    -28.941099    22.186192    -13.797696    -0.858896    13.554697    30.156097    -6.637787    26.946920    -19.112801    -27.381535    94.850098    -9.388295    -6.401222    -10.149175    6.635324    -50.526546    2.745410    -14.187839    55.370323    -22.598585    1.960133    -35.373760    20.483664    0.000000    0.000000    0.000000    -6.203960    -38.066952    -2.820485    17.586340    47.721600    -12.521717    -4.967943    -37.429024    -17.711851    0.000000    0.000000    0.000000    
122.840332    101.165245    7.393310    27.548893    15.203230    -55.198154    -4.887648    -25.790545    0.653696    7.753222    26.517595    -0.056252    -20.102783    35.160275    -15.725162    45.797897    -42.943863    3.752553    2.045066    15.339673    18.853003    -53.168278    64.859207    18.983549    -12.206652    -24.741554    -77.134567    20.089931    -29.757650    23.093380    -13.531530    -0.482927    12.867466    30.523495    -5.021597    26.574923    -19.213434    -27.299818    94.266762    -7.879001    -6.569656    -9.841627    6.330277    -50.535656    1.305098    -13.494479    54.295006    -24.418528    3.187178    -35.101902    23.403786    0.000000    0.000000    0.000000    -6.136386    -38.655941    -2.421028    20.389053    51.157661    5.575945    -13.506072    -33.609085    -38.511826    0.000000    0.000000    0.000000    
121.467506    101.055054    7.559922    27.388626    15.170105    -55.853962    -5.360434    -26.109056    0.787354    7.849488    27.073088    0.138523    -20.378738    35.636272    -15.775568    47.763988    -43.084961    4.714264    2.171299    15.921428    18.502819    -53.290363    65.867729    17.614708    -11.377577    -26.722763    -78.173988    20.905684    -30.938194    23.913860    -13.202550    0.122565    11.687552    31.095039    -3.528380    27.151325    -19.512356    -26.774923    93.195885    -5.952186    -6.209689    -9.918009    6.308517    -50.093422    0.740353    -12.552622    53.142704    -22.211620    2.373078    -34.946342    21.339905    0.000000    0.000000    0.000000    -6.096319    -39.315475    -1.808168    23.307398    53.253876    3.641842    -10.901829    -32.546379    -36.899323    0.000000    0.000000    0.000000    
120.081413    100.872742    7.749773    27.160370    15.184970    -56.665695    -5.440413    -26.657064    0.804171    7.494743    28.083252    0.217012    -20.200792    35.487740    -15.846930    48.610477    -43.062355    5.184283    2.180829    15.980498    18.474638    -53.611073    66.719223    16.463589    -10.636644    -28.625648    -79.181969    21.761749    -32.099922    24.632193    -12.854800    0.492204    10.820489    31.971060    -1.701303    28.026051    -20.332241    -26.162376    91.573372    -3.611253    -5.418333    -10.492263    6.526262    -49.507645    -0.328583    -12.308826    52.422371    -19.677361    4.668941    -34.097340    21.012129    0.000000    0.000000    0.000000    -5.840317    -40.267139    -1.532096    24.916914    54.176502    -18.443228    2.818666    -31.562847    -11.295371    0.000000    0.000000    0.000000    
118.684456    100.579369    7.982460    26.779308    15.099748    -57.803368    -5.571276    -27.206354    1.024446    7.558574    29.216850    0.400852    -20.129042    35.158417    -15.781792    49.029900    -43.045025    5.576510    1.953852    15.782259    18.123161    -53.713364    67.035690    15.033328    -10.202023    -30.305529    -80.002014    22.292345    -33.377754    24.874657    -12.692326    1.083567    9.540135    32.858292    0.395729    29.271441    -20.814472    -25.491661    89.614639    -1.916431    -5.050097    -10.665739    7.245528    -48.431618    -0.898498    -12.530787    52.519707    -18.601156    9.141184    -33.216091    23.951782    0.000000    0.000000    0.000000    -5.422822    -41.131958    -0.476578    28.618660    56.741558    -21.613100    3.861659    -29.061163    -10.311513    0.000000    0.000000    0.000000    
117.089424    100.251724    8.178590    26.167326    15.140422    -58.872322    -5.828646    -27.765635    1.083689    7.796082    30.171097    0.420927    -20.001360    35.316704    -15.528736    49.853096    -43.089108    6.333260    1.772043    15.793589    17.831402    -53.000023    66.644356    12.540329    -9.644464    -31.402681    -80.670815    22.479958    -34.075863    24.965118    -12.072962    1.757201    8.730021    33.592037    2.868712    30.040596    -21.260689    -24.584288    87.422073    -0.939608    -4.489815    -11.566577    8.312160    -47.057655    -0.804046    -12.598800    53.406811    -19.739586    12.501213    -33.332977    28.299488    0.000000    0.000000    0.000000    -4.644369    -41.871216    -0.165174    31.421135    59.466576    -24.557705    4.151923    -26.602104    -8.913326    0.000000    0.000000    0.000000    
115.552864    99.919144    8.340990    25.407681    15.113156    -60.115444    -6.117064    -28.196787    1.283729    8.390991    31.304716    0.466379    -19.634199    35.000443    -15.407410    49.880665    -43.241302    6.691312    1.503524    15.314791    17.286278    -53.040462    66.611382    10.726729    -8.851162    -32.965965    -81.014198    22.700506    -35.018871    25.042362    -11.813669    2.421170    7.402426    34.425503    5.590769    31.278091    -21.636545    -23.763111    84.649269    -0.605069    -4.263299    -11.559905    9.639660    -45.295784    -0.586992    -13.185314    54.063824    -20.643705    15.686139    -33.691559    32.319115    0.000000    0.000000    0.000000    -3.636551    -42.535004    0.960594    37.413963    63.630581    -5.861899    -6.502215    -24.829781    -35.078045    0.000000    0.000000    0.000000    
113.996254    99.471069    8.627915    24.984732    15.022238    -61.252159    -6.518940    -29.131733    1.270917    8.695262    32.506641    0.427026    -19.026810    35.115101    -15.198836    50.089512    -43.668823    7.326191    1.232726    14.761941    16.543283    -52.762722    65.752693    8.442587    -7.835302    -33.863670    -80.936317    22.253492    -35.328747    24.629467    -11.230065    3.512823    6.276627    34.861847    8.534797    32.633579    -21.933073    -23.219440    81.088745    -0.655691    -4.644094    -10.870582    10.369171    -43.630066    -0.537227    -13.254507    54.569241    -21.943399    18.280151    -34.392754    36.313080    0.000000    0.000000    0.000000    -3.194988    -43.541920    0.954101    41.723244    66.594055    -6.236133    -7.745267    -24.169703    -38.271671    0.000000    0.000000    0.000000    
112.334999    99.015305    8.911821    24.059271    14.698570    -62.369675    -6.901195    -29.459904    1.134380    9.121434    33.137444    0.231682    -18.637468    35.866314    -14.634300    50.139843    -44.392818    8.209865    0.544314    14.447923    15.855384    -52.432796    65.227478    6.297443    -6.648639    -35.149349    -80.398323    21.675146    -35.944157    23.936569    -10.826866    4.708087    6.097597    35.386822    11.677176    33.320881    -22.566202    -22.820143    77.080666    -0.226537    -5.055172    -9.909692    11.146858    -41.130062    0.431979    -11.873962    54.720604    -24.479282    20.291670    -35.322857    39.607243    0.000000    0.000000    0.000000    -2.526487    -43.973759    1.229589    46.450985    69.082909    -8.193469    -8.368446    -24.597027    -40.223652    0.000000    0.000000    0.000000    
